{
    "asset" : {
        "generator" : "Khronos glTF Blender I/O v1.1.46",
        "version" : "2.0"
    },
    "scene" : 0,
    "scenes" : [
        {
            "name" : "Scene",
            "nodes" : [
                0
            ]
        }
    ],
    "nodes" : [
        {
            "mesh" : 0,
            "name" : "bread low"
        }
    ],
    "materials" : [
        {
            "doubleSided" : true,
            "emissiveFactor" : [
                0,
                0,
                0
            ],
            "name" : "Material",
            "normalTexture" : {
                "index" : 0,
                "scale" : 0.4399999976158142,
                "texCoord" : 0
            },
            "pbrMetallicRoughness" : {
                "baseColorFactor" : [
                    1,
                    1,
                    1,
                    1
                ],
                "baseColorTexture" : {
                    "index" : 1,
                    "texCoord" : 0
                },
                "metallicFactor" : 0,
                "roughnessFactor" : 1
            }
        }
    ],
    "meshes" : [
        {
            "name" : "Cube",
            "primitives" : [
                {
                    "attributes" : {
                        "POSITION" : 0,
                        "NORMAL" : 1,
                        "TEXCOORD_0" : 2
                    },
                    "indices" : 3,
                    "material" : 0
                }
            ]
        }
    ],
    "textures" : [
        {
            "source" : 0
        },
        {
            "source" : 1
        }
    ],
    "images" : [
        {
            "bufferView" : 4,
            "mimeType" : "image/jpeg",
            "name" : "normals"
        },
        {
            "bufferView" : 5,
            "mimeType" : "image/png",
            "name" : "bread_texture_bw"
        }
    ],
    "accessors" : [
        {
            "bufferView" : 0,
            "componentType" : 5126,
            "count" : 734,
            "max" : [
                1.8311090469360352,
                1.3853131532669067,
                1.625925064086914
            ],
            "min" : [
                -2.1582491397857666,
                -1.4438793659210205,
                -1.431074619293213
            ],
            "type" : "VEC3"
        },
        {
            "bufferView" : 1,
            "componentType" : 5126,
            "count" : 734,
            "type" : "VEC3"
        },
        {
            "bufferView" : 2,
            "componentType" : 5126,
            "count" : 734,
            "type" : "VEC2"
        },
        {
            "bufferView" : 3,
            "componentType" : 5123,
            "count" : 1218,
            "type" : "SCALAR"
        }
    ],
    "bufferViews" : [
        {
            "buffer" : 0,
            "byteLength" : 8808,
            "byteOffset" : 0
        },
        {
            "buffer" : 0,
            "byteLength" : 8808,
            "byteOffset" : 8808
        },
        {
            "buffer" : 0,
            "byteLength" : 5872,
            "byteOffset" : 17616
        },
        {
            "buffer" : 0,
            "byteLength" : 2436,
            "byteOffset" : 23488
        },
        {
            "buffer" : 0,
            "byteLength" : 28172,
            "byteOffset" : 25924
        },
        {
            "buffer" : 0,
            "byteLength" : 97217,
            "byteOffset" : 54096
        }
    ],
    "buffers" : [
        {
            "byteLength" : 151316,
            "uri" : "data:application/octet-stream;base64,"
        }
    ]
}
