{
    "asset" : {
        "generator" : "Khronos glTF Blender I/O v1.1.46",
        "version" : "2.0"
    },
    "scene" : 0,
    "scenes" : [
        {
            "name" : "Scene",
            "nodes" : [
                0
            ]
        }
    ],
    "nodes" : [
        {
            "mesh" : 0,
            "name" : "chocolate"
        }
    ],
    "materials" : [
        {
            "doubleSided" : true,
            "emissiveFactor" : [
                0,
                0,
                0
            ],
            "name" : "chocolate",
            "pbrMetallicRoughness" : {
                "baseColorFactor" : [
                    0.0671410858631134,
                    0.0671410858631134,
                    0.0671410858631134,
                    1
                ],
                "metallicFactor" : 0.3008711636066437,
                "roughnessFactor" : 0.5
            }
        }
    ],
    "meshes" : [
        {
            "name" : "Cylinder",
            "primitives" : [
                {
                    "attributes" : {
                        "POSITION" : 0,
                        "NORMAL" : 1,
                        "TEXCOORD_0" : 2
                    },
                    "indices" : 3,
                    "material" : 0
                }
            ]
        }
    ],
    "accessors" : [
        {
            "bufferView" : 0,
            "componentType" : 5126,
            "count" : 3622,
            "max" : [
                1.6081520318984985,
                1.7463171482086182,
                1.3069040775299072
            ],
            "min" : [
                -1.8543888330459595,
                -1.6051572561264038,
                -1.003739833831787
            ],
            "type" : "VEC3"
        },
        {
            "bufferView" : 1,
            "componentType" : 5126,
            "count" : 3622,
            "type" : "VEC3"
        },
        {
            "bufferView" : 2,
            "componentType" : 5126,
            "count" : 3622,
            "type" : "VEC2"
        },
        {
            "bufferView" : 3,
            "componentType" : 5123,
            "count" : 6294,
            "type" : "SCALAR"
        }
    ],
    "bufferViews" : [
        {
            "buffer" : 0,
            "byteLength" : 43464,
            "byteOffset" : 0
        },
        {
            "buffer" : 0,
            "byteLength" : 43464,
            "byteOffset" : 43464
        },
        {
            "buffer" : 0,
            "byteLength" : 28976,
            "byteOffset" : 86928
        },
        {
            "buffer" : 0,
            "byteLength" : 12588,
            "byteOffset" : 115904
        }
    ],
    "buffers" : [
        {
            "byteLength" : 128492,
            "uri" : "data:application/octet-stream;base64,"
        }
    ]
}
