{
    "asset" : {
        "generator" : "Khronos glTF Blender I/O v1.1.46",
        "version" : "2.0"
    },
    "scene" : 0,
    "scenes" : [
        {
            "name" : "Scene",
            "nodes" : [
                0
            ]
        }
    ],
    "nodes" : [
        {
            "mesh" : 0,
            "name" : "key"
        }
    ],
    "materials" : [
        {
            "doubleSided" : true,
            "emissiveFactor" : [
                0,
                0,
                0
            ],
            "name" : "Material",
            "normalTexture" : {
                "index" : 0,
                "texCoord" : 0
            },
            "pbrMetallicRoughness" : {
                "baseColorFactor" : [
                    0.11839823424816132,
                    0.11839823424816132,
                    0.11839823424816132,
                    1
                ],
                "metallicFactor" : 0.3008711636066437,
                "roughnessFactor" : 0.5
            }
        }
    ],
    "meshes" : [
        {
            "name" : "Circle",
            "primitives" : [
                {
                    "attributes" : {
                        "POSITION" : 0,
                        "NORMAL" : 1,
                        "TEXCOORD_0" : 2
                    },
                    "indices" : 3,
                    "material" : 0
                }
            ]
        }
    ],
    "textures" : [
        {
            "source" : 0
        }
    ],
    "images" : [
        {
            "bufferView" : 4,
            "mimeType" : "image/jpeg",
            "name" : "key.norm"
        }
    ],
    "accessors" : [
        {
            "bufferView" : 0,
            "componentType" : 5126,
            "count" : 860,
            "max" : [
                2.7036755084991455,
                1.9289758205413818,
                0.22545282542705536
            ],
            "min" : [
                -2.555537700653076,
                -1.8435968160629272,
                -0.22545285522937775
            ],
            "type" : "VEC3"
        },
        {
            "bufferView" : 1,
            "componentType" : 5126,
            "count" : 860,
            "type" : "VEC3"
        },
        {
            "bufferView" : 2,
            "componentType" : 5126,
            "count" : 860,
            "type" : "VEC2"
        },
        {
            "bufferView" : 3,
            "componentType" : 5123,
            "count" : 4458,
            "type" : "SCALAR"
        }
    ],
    "bufferViews" : [
        {
            "buffer" : 0,
            "byteLength" : 10320,
            "byteOffset" : 0
        },
        {
            "buffer" : 0,
            "byteLength" : 10320,
            "byteOffset" : 10320
        },
        {
            "buffer" : 0,
            "byteLength" : 6880,
            "byteOffset" : 20640
        },
        {
            "buffer" : 0,
            "byteLength" : 8916,
            "byteOffset" : 27520
        },
        {
            "buffer" : 0,
            "byteLength" : 30171,
            "byteOffset" : 36436
        }
    ],
    "buffers" : [
        {
            "byteLength" : 66608,
            "uri" : "data:application/octet-stream;base64,"
        }
    ]
}
