<svg viewBox="0 0 63 13" fill="none" xmlns="http://www.w3.org/2000/svg">
<path fill-rule="evenodd" clip-rule="evenodd" d="M24.4595 9.87362V5.69709C24.4595 5.28337 24.2917 4.8866 23.9929 4.59407C23.6942 4.30153 23.289 4.13718 22.8666 4.13718C22.4441 4.13718 22.0389 4.30153 21.7402 4.59407C21.4414 4.8866 21.2736 5.28337 21.2736 5.69709V9.87362H19.0126V5.69709C19.0126 5.28337 18.8448 4.8866 18.5461 4.59407C18.2473 4.30153 17.8422 4.13718 17.4197 4.13718C16.9972 4.13718 16.592 4.30153 16.2933 4.59407C15.9946 4.8866 15.8267 5.28337 15.8267 5.69709V9.87362H13.5658V2.22503H15.8267L15.8278 3.97364C16.2553 2.93706 17.1669 2.12439 18.396 2.12439C19.7372 2.12439 20.6837 2.92407 21.0681 4.03654C21.6323 2.73598 22.5069 2.12439 23.8429 2.12439C25.1789 2.12439 26.7205 3.3067 26.7205 5.04293V9.87362H24.4595ZM31.6535 2.12439C31.1546 2.12098 30.6602 2.21742 30.2007 2.40778C29.7413 2.59814 29.3263 2.87842 28.9814 3.23143C28.8304 3.37997 27.7482 4.29659 27.7482 6.14996C27.7482 8.83371 29.9403 9.97426 31.859 9.97426C33.0512 9.97426 34.2947 9.43865 35.0501 8.60556L33.8846 7.446C33.3353 7.95346 32.614 8.24452 31.859 8.26339C30.9444 8.26339 29.9793 7.68582 29.8036 6.7538H35.456C35.5235 6.55932 35.5582 6.35537 35.5588 6.14996C35.5588 4.88674 35.1785 4.03916 34.5311 3.33207C33.6986 2.46657 32.8836 2.12439 31.6535 2.12439ZM29.9064 5.44549C30.0811 4.41696 30.7666 3.83526 31.6535 3.83526C32.7552 3.83526 33.3615 4.43578 33.4006 5.44549H29.9064ZM42.2389 2.22503V3.83526C41.9265 2.64249 40.907 2.12439 39.7724 2.12439C38.6275 2.12439 37.5443 2.90032 37.0202 3.90339C36.7376 4.44564 36.5865 5.33297 36.5865 6.04932C36.5865 6.77544 36.7376 7.56083 37.0202 8.11696C37.2834 8.65171 37.6984 9.10091 38.2154 9.41088C38.7475 9.72244 39.3581 9.88167 39.9779 9.8705C40.445 9.87939 40.9078 9.78261 41.3304 9.5877C41.724 9.3992 41.9799 9.12476 42.2389 8.76658V9.0685C42.2389 9.5871 42.1217 10.1584 41.7476 10.465C41.3442 10.8241 40.8299 11.041 40.2862 11.0813C39.6059 11.1417 38.5628 10.9719 37.8341 10.4628L37.013 11.9901C37.9533 12.6123 39.0602 13.0601 40.4918 12.9934C41.9234 12.9268 43.3015 12.0958 43.9932 11.031C44.3385 10.4983 44.4999 9.88589 44.4999 9.16914V2.22503H42.2389ZM40.4959 8.21599C39.9492 8.21599 39.5103 8.0345 39.1794 7.67153C38.8485 7.30923 38.7539 6.63394 38.7447 6.04932C38.7539 5.46491 38.8505 4.78721 39.1866 4.41957C39.3551 4.24534 39.5581 4.10656 39.7832 4.01173C40.0083 3.91689 40.2508 3.86798 40.4959 3.86798C40.741 3.86798 40.9834 3.91689 41.2086 4.01173C41.4337 4.10656 41.6367 4.24534 41.8052 4.41957C42.1413 4.78721 42.2389 5.46491 42.2389 6.04932C42.2389 6.63374 42.1413 7.30872 41.8052 7.67153C41.6408 7.85034 41.4383 7.99174 41.2121 8.0858C40.986 8.17986 40.7415 8.22429 40.4959 8.21599ZM52.9271 9.87362V4.94229C52.9178 4.08455 52.5807 3.37303 52.0093 2.89227C51.4379 2.41152 50.6353 2.17109 49.5994 2.17109C49.0022 2.16546 48.4068 2.23676 47.8286 2.38314C47.2318 2.54717 46.6533 2.7697 46.1021 3.04736L46.7927 4.54628C47.6087 4.10347 48.3764 3.88206 49.0958 3.88206C49.623 3.88206 50.0235 3.99276 50.2972 4.21417C50.5705 4.43557 50.6661 4.738 50.6661 5.14327V5.34455H48.5079C47.5676 5.35401 46.9098 5.5105 46.397 5.91115C45.8842 6.31179 45.6273 6.87054 45.6273 7.58689C45.6273 8.29392 45.8671 8.86662 46.3466 9.30501C46.8262 9.74339 47.4737 9.96258 48.289 9.96258C48.7767 9.97165 49.2614 9.88511 49.7145 9.70807C50.1266 9.53839 50.4595 9.06397 50.6661 8.46436V9.87331H52.9271V9.87362ZM48.9087 8.4074C48.5346 8.4074 48.2387 8.32035 48.0229 8.14574C47.9172 8.06159 47.833 7.95456 47.7768 7.83309C47.7206 7.71163 47.694 7.57905 47.6991 7.4458C47.6991 7.14388 47.8029 6.92499 48.0085 6.78822C48.214 6.65145 48.4874 6.55252 48.919 6.55252H50.6661V7.257C50.6369 7.42562 50.5716 7.5863 50.4745 7.72851C50.3775 7.87072 50.2508 7.99126 50.1029 8.08224C49.7469 8.3048 49.331 8.41808 48.9087 8.4075V8.4074ZM6.69862 9.87362C8.47142 9.49028 10.1743 7.76019 10.1743 5.91014C10.1743 4.88253 9.75747 3.89701 9.01545 3.17038C8.27342 2.44375 7.26702 2.03553 6.21765 2.03553C5.16827 2.03553 4.16187 2.44375 3.41985 3.17038C2.67782 3.89701 2.26096 4.88253 2.26096 5.91014C2.26096 7.75999 3.96387 9.49028 5.73667 9.87362H1.34733C0.620552 8.97683 0.16671 7.89755 0.037873 6.75964C-0.0909643 5.62174 0.11042 4.47131 0.618933 3.4404C1.12745 2.40949 1.92248 1.53987 2.91278 0.931329C3.90308 0.322791 5.04852 0 6.21765 0C7.38678 0 8.53222 0.322791 9.52251 0.931329C10.5128 1.53987 11.3078 2.40949 11.8164 3.4404C12.3249 4.47131 12.5263 5.62174 12.3974 6.75964C12.2686 7.89755 11.8147 8.97683 11.088 9.87362H6.69862ZM60.7654 7.29192L62.7931 9.87362H60.3266L58.5877 7.65955H56.4213V9.87362H54.1603V7.65955H56.4213V5.54794H59.0635C59.2942 5.54967 59.523 5.50668 59.7366 5.42143C59.9502 5.33618 60.1445 5.21038 60.3082 5.05126C60.472 4.89214 60.6019 4.70285 60.6906 4.49432C60.7793 4.28578 60.825 4.06212 60.825 3.83622C60.825 3.61032 60.7793 3.38666 60.6906 3.17812C60.6019 2.96958 60.472 2.7803 60.3082 2.62118C60.1445 2.46206 59.9502 2.33625 59.7366 2.251C59.523 2.16576 59.2942 2.12276 59.0635 2.1245H56.4213V0.0109706H59.0933C59.9804 0.0106687 60.8412 0.306123 61.534 0.848704C62.2267 1.39129 62.7102 2.14866 62.9048 2.99618C63.0995 3.8437 62.9937 4.73085 62.6048 5.51163C62.216 6.29241 61.5672 6.92029 60.7654 7.29192Z" fill="#0F1011"/>
</svg>
